<svg version="1.1" id="Layer_1" xmlns="http://www.w3.org/2000/svg" xmlns:xlink="http://www.w3.org/1999/xlink" x="0px" y="0px"
	 width="100%" viewBox="0 0 267 211" enable-background="new 0 0 267 211" xml:space="preserve">
<path fill="#232157" opacity="1.000000" stroke="none" 
	d="
M169.000000,212.000000 
	C112.666664,212.000000 56.833332,212.000000 1.000000,212.000000 
	C1.000000,141.666672 1.000000,71.333336 1.000000,1.000000 
	C90.000000,1.000000 179.000000,1.000000 268.000000,1.000000 
	C268.000000,71.333336 268.000000,141.666672 268.000000,212.000000 
	C235.166672,212.000000 202.333328,212.000000 169.000000,212.000000 
M54.792347,202.170349 
	C55.542881,201.813171 56.293411,201.455978 57.723377,200.970398 
	C60.512547,197.501373 63.301716,194.032364 66.588692,190.180603 
	C66.716576,189.789932 66.844467,189.399277 67.337669,188.492584 
	C67.608704,187.490189 67.879738,186.487778 68.625237,184.968643 
	C68.785393,184.297455 68.945549,183.626282 69.248665,182.759140 
	C69.248665,182.759140 69.152855,182.536316 69.644852,182.023148 
	C69.788467,181.339767 69.932083,180.656372 70.206917,179.752319 
	C70.206917,179.752319 70.112289,179.513672 70.533379,179.135132 
	C70.612251,178.775787 70.691124,178.416458 71.020813,177.351059 
	C71.291885,175.889664 71.562958,174.428268 72.029076,172.503738 
	C72.021065,172.336426 72.013054,172.169098 72.296860,171.289368 
	C72.560738,170.156403 72.761574,169.004211 73.099854,167.893921 
	C74.300591,163.952835 73.398743,158.509567 79.959839,158.289368 
	C80.322800,158.277191 80.631012,156.633728 80.894691,155.935074 
	C79.360367,154.916336 76.943825,154.012085 76.980988,153.223495 
	C77.232094,147.896179 77.337212,142.394073 81.340302,137.184998 
	C83.037842,139.415787 84.206459,141.166901 85.593346,142.723557 
	C87.670212,145.054642 90.063232,145.678146 92.456863,143.174255 
	C94.810265,140.712463 94.243500,138.281281 91.822533,136.292862 
	C90.706520,135.376251 89.282356,134.633759 87.881599,134.298950 
	C81.071609,132.671249 74.277985,135.341309 70.622925,141.435837 
	C68.762550,144.537872 67.752769,148.139923 66.194595,151.438522 
	C65.611374,152.673187 64.682785,153.811829 63.693928,154.769424 
	C62.645466,155.784729 61.338276,156.532883 60.144081,157.397705 
	C61.346630,158.267929 62.549175,159.138138 64.434364,160.502350 
	C61.315590,172.684891 58.105858,185.222733 54.476227,198.029678 
	C54.233128,198.267685 54.063076,198.549713 53.297348,198.974625 
	C52.852127,199.044067 52.406910,199.113510 51.548618,198.918884 
	C51.548618,198.918884 51.091518,198.741592 50.940796,198.030289 
	C50.726139,197.598724 50.511478,197.167160 50.351242,196.438416 
	C50.316753,196.224380 50.210678,196.055038 49.880711,195.184967 
	C47.670376,191.752655 45.015457,191.799210 41.500107,194.528458 
	C39.590137,197.447632 39.873257,199.913147 43.324627,202.030090 
	C43.324627,202.030090 43.719486,202.105515 44.387245,202.630112 
	C47.630634,202.459274 50.874027,202.288452 54.087883,202.181686 
	C54.087883,202.181686 54.153538,202.207489 54.792347,202.170349 
M134.998825,125.291977 
	C134.700500,124.200531 134.402191,123.109093 133.928345,121.245850 
	C133.284576,119.792435 132.640823,118.339012 131.787308,116.241547 
	C127.107903,116.161034 122.425499,115.941948 117.750008,116.042770 
	C113.835938,116.127174 109.929932,116.585403 105.273140,117.175446 
	C104.995865,117.739319 104.475403,118.303719 104.476608,118.867004 
	C104.514336,136.519821 103.958603,154.206070 104.875877,171.815231 
	C105.693710,187.515274 113.809624,198.908051 129.504776,203.293625 
	C141.751221,206.715607 154.206589,206.657883 166.361237,202.471848 
	C178.408859,198.322678 185.675797,189.738007 187.978699,177.275421 
	C189.089890,171.262070 189.355118,165.092407 190.513962,158.341141 
	C190.821793,145.003952 191.145309,131.667007 191.357178,118.328300 
	C191.363174,117.951515 190.178604,117.555817 188.785416,117.142090 
	C187.517914,117.055176 186.250397,116.968262 184.302460,116.418770 
	C177.206787,116.573044 170.111130,116.727318 162.176163,117.057594 
	C161.478287,118.229172 160.216675,119.382118 160.177246,120.575447 
	C159.974854,126.700493 160.123856,132.836182 160.080627,138.967667 
	C160.010529,148.907471 160.129517,158.857742 159.685379,168.781982 
	C159.453629,173.960449 156.652603,177.918930 151.224609,179.139664 
	C145.642624,180.395004 140.329956,180.319977 136.839401,173.874619 
	C136.226746,167.171738 135.299774,160.479263 135.077698,153.763474 
	C134.772003,144.518616 134.999252,135.256149 134.998825,125.291977 
M120.408836,18.701071 
	C120.274422,19.510990 120.023354,20.320793 120.022560,21.130842 
	C120.000099,44.152931 119.989311,67.175079 120.038002,90.197083 
	C120.040672,91.459427 120.572899,92.720650 121.020088,94.900375 
	C121.020088,98.197151 121.020088,101.493927 121.020088,105.057045 
	C130.529816,105.057045 139.589844,105.057045 148.802979,105.057045 
	C148.802979,74.951035 148.802979,45.088875 148.802979,14.970195 
	C140.130875,14.970195 131.813904,14.876708 123.505707,15.103812 
	C122.599007,15.128597 121.742790,17.000282 120.408836,18.701071 
M189.793518,102.267876 
	C189.863907,101.509186 189.934311,100.750488 190.515137,99.339745 
	C190.674133,98.534828 190.971191,97.730057 190.972046,96.924973 
	C190.998535,72.195755 191.010391,47.466465 190.955673,22.737339 
	C190.952927,21.492290 190.335739,20.248600 189.797455,18.346422 
	C189.865143,17.896872 189.932846,17.447323 190.554840,16.874460 
	C190.809448,16.535040 191.064056,16.195621 191.318665,15.856201 
	C190.786423,15.611157 190.254166,15.366115 188.823227,15.029837 
	C180.780869,15.004426 172.736832,14.891332 164.697922,15.045518 
	C163.452499,15.069406 162.230545,16.317162 160.488571,17.654177 
	C160.328659,18.458952 160.029938,19.263571 160.029037,20.068527 
	C160.002060,44.134521 159.989716,68.200577 160.044678,92.266464 
	C160.047516,93.511726 160.665024,94.755577 161.208206,96.870827 
	C161.208206,99.504929 161.208206,102.139023 161.208206,104.912125 
	C171.007507,104.912125 180.402679,104.912125 190.362732,104.857391 
	C190.692123,104.581032 191.021515,104.304672 191.350906,104.028305 
	C190.902145,103.687920 190.453384,103.347542 189.793518,102.267876 
M33.520550,63.974102 
	C27.878334,77.540558 22.236122,91.107010 16.301399,105.376793 
	C24.773157,105.376793 32.281113,104.920319 39.703648,105.520424 
	C45.702652,106.005440 49.137733,104.298973 50.021141,98.183601 
	C50.579494,94.318436 52.970604,93.324097 56.714233,93.479492 
	C63.698135,93.769379 70.707054,93.711578 77.696350,93.497513 
	C80.710579,93.405197 82.277618,94.411385 83.074860,97.290100 
	C83.645714,99.351334 84.537056,101.377419 85.623207,103.220070 
	C86.178825,104.162674 87.466705,105.262863 88.440056,105.278648 
	C97.903702,105.432091 107.370819,105.370903 116.879700,105.370903 
	C116.879700,104.423393 117.030388,103.875252 116.858200,103.461494 
	C105.372017,75.861252 93.899422,48.255032 82.226486,20.733816 
	C81.674637,19.432735 79.353218,18.187410 77.805855,18.123257 
	C70.988251,17.840595 64.142647,18.216835 57.326916,17.912495 
	C53.762779,17.753345 52.076553,18.962423 50.764973,22.256065 
	C45.292500,35.998569 39.529194,49.625263 33.520550,63.974102 
M222.567764,154.101852 
	C231.208191,152.945770 238.748764,156.436188 246.230560,159.931198 
	C249.280960,154.088242 252.224228,148.450470 255.600693,141.982941 
	C250.212769,140.049240 245.361816,137.910477 240.299103,136.573807 
	C229.652145,133.762756 218.942032,133.286148 208.597778,137.933853 
	C200.602051,141.526352 196.321136,147.788345 195.849579,156.637802 
	C195.392380,165.217865 198.741165,171.763077 206.670929,175.095184 
	C213.361481,177.906540 220.473938,179.699982 227.308945,182.192688 
	C228.722687,182.708252 229.736328,184.320923 230.934387,185.427933 
	C229.495682,185.945068 227.919525,187.132553 226.640640,186.870346 
	C218.471420,185.195374 210.367584,183.201492 201.453690,181.129242 
	C199.163284,184.991318 196.072739,190.202576 192.830460,195.669678 
	C207.591064,204.913483 223.148819,207.617828 239.558441,203.873749 
	C250.771759,201.315247 256.521912,192.975540 256.497375,181.681870 
	C256.476288,171.966003 251.013962,166.016327 238.738235,161.821106 
	C233.168793,159.917770 226.416733,160.411484 222.567764,154.101852 
M45.256233,153.998947 
	C36.799141,152.159454 29.332443,153.998856 23.683380,160.696640 
	C19.663050,165.463318 17.799788,171.038361 20.169081,177.348877 
	C22.252911,182.899094 26.875160,185.054245 32.153225,185.730804 
	C40.085949,186.747604 46.963303,184.206512 52.086697,177.946182 
	C59.285240,169.150162 56.413303,158.139236 45.256233,153.998947 
z"/>
<path fill="#FBFBFC" opacity="1.000000" stroke="none" 
	d="
M136.729889,174.780914 
	C140.329956,180.319977 145.642624,180.395004 151.224609,179.139664 
	C156.652603,177.918930 159.453629,173.960449 159.685379,168.781982 
	C160.129517,158.857742 160.010529,148.907471 160.080627,138.967667 
	C160.123856,132.836182 159.974854,126.700493 160.177246,120.575447 
	C160.216675,119.382118 161.478287,118.229172 163.057434,117.048943 
	C170.953430,116.987312 177.968170,116.934326 184.982895,116.881348 
	C186.250397,116.968262 187.517914,117.055176 189.230103,117.608475 
	C189.784317,131.714417 189.893845,145.353958 190.003387,158.993515 
	C189.355118,165.092407 189.089890,171.262070 187.978699,177.275421 
	C185.675797,189.738007 178.408859,198.322678 166.361237,202.471848 
	C154.206589,206.657883 141.751221,206.715607 129.504776,203.293625 
	C113.809624,198.908051 105.693710,187.515274 104.875877,171.815231 
	C103.958603,154.206070 104.514336,136.519821 104.476608,118.867004 
	C104.475403,118.303719 104.995865,117.739319 106.107819,117.106750 
	C115.294014,116.987236 123.645531,116.936417 131.997055,116.885597 
	C132.640823,118.339012 133.284576,119.792435 133.933456,122.025139 
	C133.995529,123.870918 134.052490,124.937401 134.021423,126.465012 
	C133.935867,139.809647 133.763412,152.697281 134.068024,165.573654 
	C134.141083,168.662003 135.800201,171.712830 136.729889,174.780914 
z"/>
<path fill="#FCFCFD" opacity="1.000000" stroke="none" 
	d="
M33.696533,63.634262 
	C39.529194,49.625263 45.292500,35.998569 50.764973,22.256065 
	C52.076553,18.962423 53.762779,17.753345 57.326916,17.912495 
	C64.142647,18.216835 70.988251,17.840595 77.805855,18.123257 
	C79.353218,18.187410 81.674637,19.432735 82.226486,20.733816 
	C93.899422,48.255032 105.372017,75.861252 116.858200,103.461494 
	C117.030388,103.875252 116.879700,104.423393 116.879700,105.370903 
	C107.370819,105.370903 97.903702,105.432091 88.440056,105.278648 
	C87.466705,105.262863 86.178825,104.162674 85.623207,103.220070 
	C84.537056,101.377419 83.645714,99.351334 83.074860,97.290100 
	C82.277618,94.411385 80.710579,93.405197 77.696350,93.497513 
	C70.707054,93.711578 63.698135,93.769379 56.714233,93.479492 
	C52.970604,93.324097 50.579494,94.318436 50.021141,98.183601 
	C49.137733,104.298973 45.702652,106.005440 39.703648,105.520424 
	C32.281113,104.920319 24.773157,105.376793 16.301399,105.376793 
	C22.236122,91.107010 27.878334,77.540558 33.696533,63.634262 
M71.562546,64.967468 
	C70.062286,61.195396 68.562027,57.423321 66.665543,52.655033 
	C63.921276,60.065418 61.595131,66.346748 59.250935,72.676811 
	C64.472328,72.676811 69.173668,72.676811 74.170006,72.676811 
	C73.309441,70.085747 72.581390,67.893684 71.562546,64.967468 
z"/>
<path fill="#FBFBFC" opacity="1.000000" stroke="none" 
	d="
M222.459747,154.484161 
	C226.416733,160.411484 233.168793,159.917770 238.738235,161.821106 
	C251.013962,166.016327 256.476288,171.966003 256.497375,181.681870 
	C256.521912,192.975540 250.771759,201.315247 239.558441,203.873749 
	C223.148819,207.617828 207.591064,204.913483 192.830460,195.669678 
	C196.072739,190.202576 199.163284,184.991318 201.453690,181.129242 
	C210.367584,183.201492 218.471420,185.195374 226.640640,186.870346 
	C227.919525,187.132553 229.495682,185.945068 230.934387,185.427948 
	C229.736328,184.320923 228.722687,182.708252 227.308945,182.192688 
	C220.473938,179.699982 213.361481,177.906540 206.670929,175.095184 
	C198.741165,171.763077 195.392380,165.217865 195.849579,156.637802 
	C196.321136,147.788345 200.602051,141.526352 208.597778,137.933853 
	C218.942032,133.286148 229.652145,133.762756 240.299103,136.573807 
	C245.361816,137.910477 250.212769,140.049240 255.600693,141.982941 
	C252.224228,148.450470 249.280960,154.088242 246.230560,159.931198 
	C238.748764,156.436188 231.208191,152.945770 222.459747,154.484161 
z"/>
<path fill="#FAFAFB" opacity="1.000000" stroke="none" 
	d="
M160.997772,16.998947 
	C162.230545,16.317162 163.452499,15.069406 164.697922,15.045518 
	C172.736832,14.891332 180.780869,15.004426 189.284851,15.393886 
	C189.831177,16.171213 189.915848,16.584492 190.000534,16.997772 
	C189.932846,17.447323 189.865143,17.896872 189.800095,19.134056 
	C189.870056,46.611729 189.937378,73.301765 190.004700,99.991798 
	C189.934311,100.750488 189.863907,101.509186 189.798004,102.944336 
	C189.800934,104.051239 189.799393,104.481682 189.797852,104.912125 
	C180.402679,104.912125 171.007507,104.912125 161.208206,104.912125 
	C161.208206,102.139023 161.208206,99.504929 161.203964,95.976379 
	C161.132401,69.054276 161.065079,43.026615 160.997772,16.998947 
z"/>
<path fill="#FDFDFE" opacity="1.000000" stroke="none" 
	d="
M120.863159,18.015322 
	C121.742790,17.000282 122.599007,15.128597 123.505707,15.103812 
	C131.813904,14.876708 140.130875,14.970195 148.802979,14.970195 
	C148.802979,45.088875 148.802979,74.951035 148.802979,105.057045 
	C139.589844,105.057045 130.529816,105.057045 121.020088,105.057045 
	C121.020088,101.493927 121.020088,98.197151 121.017097,93.979675 
	C120.963791,68.044426 120.913475,43.029873 120.863159,18.015322 
z"/>
<path fill="#5698C8" opacity="1.000000" stroke="none" 
	d="
M66.090881,190.563339 
	C63.301716,194.032364 60.512547,197.501373 57.177040,200.767426 
	C56.052513,199.629837 55.474319,198.695206 54.896126,197.760574 
	C58.105858,185.222733 61.315590,172.684891 64.434364,160.502350 
	C62.549175,159.138138 61.346630,158.267929 60.144081,157.397705 
	C61.338276,156.532883 62.645466,155.784729 63.693928,154.769424 
	C64.682785,153.811829 65.611374,152.673187 66.194595,151.438522 
	C67.752769,148.139923 68.762550,144.537872 70.622925,141.435837 
	C74.277985,135.341309 81.071609,132.671249 87.881599,134.298950 
	C89.282356,134.633759 90.706520,135.376251 91.822533,136.292862 
	C94.243500,138.281281 94.810265,140.712463 92.456863,143.174255 
	C90.063232,145.678146 87.670212,145.054642 85.593346,142.723557 
	C84.206459,141.166901 83.037842,139.415787 81.340302,137.184998 
	C77.337212,142.394073 77.232094,147.896179 76.980988,153.223495 
	C76.943825,154.012085 79.360367,154.916336 80.894691,155.935074 
	C80.631012,156.633728 80.322800,158.277191 79.959839,158.289368 
	C73.398743,158.509567 74.300591,163.952835 73.099854,167.893921 
	C72.761574,169.004211 72.560738,170.156403 72.019135,171.729950 
	C71.524910,172.453491 71.555779,172.718933 71.834030,172.966873 
	C71.562958,174.428268 71.291885,175.889664 70.724159,177.913300 
	C70.322433,178.821579 70.217369,179.167633 70.112289,179.513672 
	C70.112289,179.513672 70.206917,179.752319 69.895775,180.117661 
	C69.440712,181.167435 69.296783,181.851883 69.152855,182.536316 
	C69.152855,182.536316 69.248665,182.759140 68.925995,183.105240 
	C68.452477,184.129349 68.301628,184.807373 68.150772,185.485382 
	C67.879738,186.487778 67.608704,187.490189 66.940598,188.965332 
	C66.392647,189.813171 66.241760,190.188263 66.090881,190.563339 
z"/>
<path fill="#5797C7" opacity="1.000000" stroke="none" 
	d="
M45.651505,154.064743 
	C56.413303,158.139236 59.285240,169.150162 52.086697,177.946182 
	C46.963303,184.206512 40.085949,186.747604 32.153225,185.730804 
	C26.875160,185.054245 22.252911,182.899094 20.169081,177.348877 
	C17.799788,171.038361 19.663050,165.463318 23.683380,160.696640 
	C29.332443,153.998856 36.799141,152.159454 45.651505,154.064743 
M35.010826,160.562195 
	C33.413986,165.552383 31.404476,170.464966 30.443497,175.574738 
	C30.105841,177.370117 32.053448,181.078415 33.469582,181.362717 
	C35.448822,181.760025 39.091949,180.360718 39.932724,178.682709 
	C42.179527,174.198502 43.780048,169.239090 44.660824,164.294571 
	C45.024990,162.250214 43.433556,159.021820 41.695023,157.759705 
	C40.691647,157.031296 37.620247,159.151566 35.010826,160.562195 
z"/>
<path fill="#5698C8" opacity="1.000000" stroke="none" 
	d="
M43.719486,202.105530 
	C43.719486,202.105515 43.324627,202.030090 43.089256,201.540771 
	C42.589760,198.762863 42.325630,196.474289 42.061501,194.185699 
	C45.015457,191.799210 47.670376,191.752655 49.980904,195.700073 
	C50.131775,196.397446 50.203686,196.570923 50.296822,196.735596 
	C50.511478,197.167160 50.726139,197.598724 51.054337,198.546906 
	C51.167877,199.063538 51.523750,199.336258 51.523750,199.336258 
	C51.523750,199.336258 51.961689,199.182953 51.961689,199.182953 
	C52.406910,199.113510 52.852127,199.044067 53.644230,199.341370 
	C54.045254,200.541245 54.099396,201.374374 54.153538,202.207489 
	C54.153538,202.207489 54.087883,202.181686 53.634239,202.115707 
	C50.026894,202.068329 46.873192,202.086929 43.719486,202.105530 
z"/>
<path fill="#23214A" opacity="1.000000" stroke="none" 
	d="
M190.259918,99.665771 
	C189.937378,73.301765 189.870056,46.611729 189.903687,19.462986 
	C190.335739,20.248600 190.952927,21.492290 190.955673,22.737339 
	C191.010391,47.466465 190.998535,72.195755 190.972046,96.924973 
	C190.971191,97.730057 190.674133,98.534828 190.259918,99.665771 
z"/>
<path fill="#23214A" opacity="1.000000" stroke="none" 
	d="
M160.743164,17.326565 
	C161.065079,43.026615 161.132401,69.054276 161.098038,95.541016 
	C160.665024,94.755577 160.047516,93.511726 160.044678,92.266464 
	C159.989716,68.200577 160.002060,44.134521 160.029037,20.068527 
	C160.029938,19.263571 160.328659,18.458952 160.743164,17.326565 
z"/>
<path fill="#24224B" opacity="1.000000" stroke="none" 
	d="
M120.636002,18.358196 
	C120.913475,43.029873 120.963791,68.044426 120.936371,93.520691 
	C120.572899,92.720650 120.040672,91.459427 120.038002,90.197083 
	C119.989311,67.175079 120.000099,44.152931 120.022560,21.130842 
	C120.023354,20.320793 120.274422,19.510990 120.636002,18.358196 
z"/>
<path fill="#262248" opacity="1.000000" stroke="none" 
	d="
M136.784637,174.327759 
	C135.800201,171.712830 134.141083,168.662003 134.068024,165.573654 
	C133.763412,152.697281 133.935867,139.809647 134.243591,126.463829 
	C134.553818,126.001526 134.998169,126.001221 134.998169,126.001221 
	C134.999252,135.256149 134.772003,144.518616 135.077698,153.763474 
	C135.299774,160.479263 136.226746,167.171738 136.784637,174.327759 
z"/>
<path fill="#23214A" opacity="1.000000" stroke="none" 
	d="
M190.258667,158.667328 
	C189.893845,145.353958 189.784317,131.714417 189.611969,117.621895 
	C190.178604,117.555817 191.363174,117.951515 191.357178,118.328300 
	C191.145309,131.667007 190.821793,145.003952 190.258667,158.667328 
z"/>
<path fill="#221F4A" opacity="1.000000" stroke="none" 
	d="
M131.892181,116.563568 
	C123.645531,116.936417 115.294014,116.987236 106.481422,116.958084 
	C109.929932,116.585403 113.835938,116.127174 117.750008,116.042770 
	C122.425499,115.941948 127.107903,116.161034 131.892181,116.563568 
z"/>
<path fill="#221F4A" opacity="1.000000" stroke="none" 
	d="
M184.642670,116.650055 
	C177.968170,116.934326 170.953430,116.987312 163.477081,116.960938 
	C170.111130,116.727318 177.206787,116.573044 184.642670,116.650055 
z"/>
<path fill="#5792C3" opacity="1.000000" stroke="none" 
	d="
M41.780804,194.357086 
	C42.325630,196.474289 42.589760,198.762863 42.928062,201.420715 
	C39.873257,199.913147 39.590137,197.447632 41.780804,194.357086 
z"/>
<path fill="#5792C3" opacity="1.000000" stroke="none" 
	d="
M44.053368,202.367828 
	C46.873192,202.086929 50.026894,202.068329 53.649010,202.083679 
	C50.874027,202.288452 47.630634,202.459274 44.053368,202.367828 
z"/>
<path fill="#5792C3" opacity="1.000000" stroke="none" 
	d="
M54.472942,202.188919 
	C54.099396,201.374374 54.045254,200.541245 53.978588,199.291962 
	C54.063076,198.549713 54.233128,198.267685 54.686176,197.895126 
	C55.474319,198.695206 56.052513,199.629837 56.837326,200.831635 
	C56.293411,201.455978 55.542881,201.813171 54.472942,202.188919 
z"/>
<path fill="#221F4A" opacity="1.000000" stroke="none" 
	d="
M134.998505,125.646599 
	C134.998169,126.001221 134.553818,126.001526 134.331635,126.002708 
	C134.052490,124.937401 133.995529,123.870918 134.021210,122.411041 
	C134.402191,123.109093 134.700500,124.200531 134.998505,125.646599 
z"/>
<path fill="#23214A" opacity="1.000000" stroke="none" 
	d="
M190.080292,104.884758 
	C189.799393,104.481682 189.800934,104.051239 189.903549,103.313980 
	C190.453384,103.347542 190.902145,103.687920 191.350922,104.028305 
	C191.021515,104.304672 190.692123,104.581032 190.080292,104.884758 
z"/>
<path fill="#23214A" opacity="1.000000" stroke="none" 
	d="
M190.277679,16.936115 
	C189.915848,16.584492 189.831177,16.171213 189.734207,15.439503 
	C190.254166,15.366115 190.786423,15.611157 191.318665,15.856201 
	C191.064056,16.195621 190.809448,16.535040 190.277679,16.936115 
z"/>
<path fill="#5792C3" opacity="1.000000" stroke="none" 
	d="
M69.398849,182.279724 
	C69.296783,181.851883 69.440712,181.167435 69.830170,180.227997 
	C69.932083,180.656372 69.788467,181.339767 69.398849,182.279724 
z"/>
<path fill="#5792C3" opacity="1.000000" stroke="none" 
	d="
M68.388008,185.227020 
	C68.301628,184.807373 68.452477,184.129349 68.854523,183.203217 
	C68.945549,183.626282 68.785393,184.297455 68.388008,185.227020 
z"/>
<path fill="#5792C3" opacity="1.000000" stroke="none" 
	d="
M71.931549,172.735306 
	C71.555779,172.718933 71.524910,172.453491 71.873230,172.086151 
	C72.013054,172.169098 72.021065,172.336426 71.931549,172.735306 
z"/>
<path fill="#5792C3" opacity="1.000000" stroke="none" 
	d="
M70.322838,179.324402 
	C70.217369,179.167633 70.322433,178.821579 70.598755,178.266327 
	C70.691124,178.416458 70.612251,178.775787 70.322838,179.324402 
z"/>
<path fill="#5792C3" opacity="1.000000" stroke="none" 
	d="
M66.339783,190.371979 
	C66.241760,190.188263 66.392647,189.813171 66.757950,189.223358 
	C66.844467,189.399277 66.716576,189.789932 66.339783,190.371979 
z"/>
<path fill="#5792C3" opacity="1.000000" stroke="none" 
	d="
M50.324036,196.587006 
	C50.203686,196.570923 50.131775,196.397446 50.057060,196.072769 
	C50.210678,196.055038 50.316753,196.224380 50.324036,196.587006 
z"/>
<path fill="#5792C3" opacity="1.000000" stroke="none" 
	d="
M51.755154,199.050919 
	C51.961689,199.182953 51.523750,199.336258 51.523750,199.336258 
	C51.523750,199.336258 51.167877,199.063538 51.129700,198.902557 
	C51.091518,198.741592 51.548618,198.918884 51.755154,199.050919 
z"/>
<path fill="#2B2857" opacity="1.000000" stroke="none" 
	d="
M71.707947,65.334541 
	C72.581390,67.893684 73.309441,70.085747 74.170006,72.676811 
	C69.173668,72.676811 64.472328,72.676811 59.250935,72.676811 
	C61.595131,66.346748 63.921276,60.065418 66.665543,52.655033 
	C68.562027,57.423321 70.062286,61.195396 71.707947,65.334541 
z"/>
<path fill="#20265D" opacity="1.000000" stroke="none" 
	d="
M35.245235,160.275940 
	C37.620247,159.151566 40.691647,157.031296 41.695023,157.759705 
	C43.433556,159.021820 45.024990,162.250214 44.660824,164.294571 
	C43.780048,169.239090 42.179527,174.198502 39.932724,178.682709 
	C39.091949,180.360718 35.448822,181.760025 33.469582,181.362717 
	C32.053448,181.078415 30.105841,177.370117 30.443497,175.574738 
	C31.404476,170.464966 33.413986,165.552383 35.245235,160.275940 
z"/>
</svg>