<?xml version="1.0" encoding="UTF-8"?>
<svg xmlns="http://www.w3.org/2000/svg" version="1.1" viewBox="0 0 399 358.1">
  <defs>
    <style>
      .cls-1 {
        fill: #fff;
      }

      .cls-2 {
        fill: #262262;
      }

      .cls-3 {
        fill: #5eaee0;
      }

      .cls-4 {
        fill: #6aa7d5;
      }
    </style>
  </defs>
  <!-- Generator: Adobe Illustrator 28.7.1, SVG Export Plug-In . SVG Version: 1.2.0 Build 142)  -->
  <g>
    <g id="Layer_1">
      <rect class="cls-2" width="399" height="358.1"/>
      <path class="cls-3" d="M72.9,256.1c0,2.6.5,4.5,1.4,5.8,1,1.3,2.4,1.9,4.3,1.9,3.6,0,6.5-2.7,8.7-8.2,2.3-5.4,3.4-10,3.4-13.8s-.5-4.9-1.6-6.2-2.3-1.9-3.7-1.9c-3.8,0-6.8,2.9-9.1,8.6-2.3,5.7-3.4,10.3-3.4,13.7M60.2,251.7c0-3.1.9-6.3,2.7-9.8,1.8-3.5,4.5-6.4,8.3-8.7,3.8-2.3,8.3-3.5,13.5-3.5s11.2,1.6,14.3,4.7c3,3.1,4.6,6.9,4.6,11.3s-2.3,11.3-7,15.8c-4.7,4.5-10.6,6.7-17.9,6.7s-9.7-1.3-13.2-4c-3.5-2.7-5.3-6.8-5.3-12.4"/>
      <path class="cls-3" d="M126.4,235.9l-4.3,19.5c-2.5,11.3-5.8,19.7-10,25.2s-9.8,8.3-17,8.3-5.9-.6-7.4-2-2.3-2.9-2.3-4.8.6-3.1,1.8-4.3c1.2-1.1,2.6-1.7,4.2-1.7,3.3,0,5.3,1.8,5.8,5.4.3,1.8,1.1,2.8,2.4,2.8s2.6-1.2,3.7-3.7,2.4-7.4,4-14.8l1.3-6.3c.4-1.5.7-2.7.9-3.6l4.4-20.2h-5.6l1.5-4.8h5.1c2.7-9.9,5.9-16.5,9.5-19.8,3.6-3.2,7.9-4.9,12.9-4.9s6.1.7,8.2,2c2.1,1.3,3.2,3.1,3.2,5.2s-.5,2.7-1.5,3.8c-1,1.1-2.3,1.6-3.9,1.6-2.3,0-4.2-1.6-5.9-4.8-1.2-2.4-2.4-3.6-3.7-3.6s-2.6,1.9-3.3,5.8l-2.8,14.6h6.4l-1.5,4.8h-6Z"/>
      <path class="cls-1" d="M125.9,133.6l-9.3-25.1-9.3,25.1h18.7ZM99.9,67.9h33.9l43.1,104h-37.1l-5.4-13.9h-35.8l-5.3,13.9h-36.5l43.1-104Z"/>
      <rect class="cls-1" x="181.3" y="64.2" width="33.2" height="107.7"/>
      <rect class="cls-1" x="229.3" y="64.2" width="33.2" height="107.7"/>
      <path class="cls-1" d="M161.4,243.4v-56.9h34.8v56.5c0,12.8,6.6,18.3,15.8,18.3s15.8-5,15.8-17.6v-57.2h34.8v56.2c0,35.3-20.3,49.1-50.8,49.1-30.5,0-50.3-14.2-50.3-48.4"/>
      <path class="cls-1" d="M266.7,280l11.2-19c9.6,6,20.5,9,29.5,9s4.8-.7,4.8-2.7v-.3c0-1.6-1.5-2.6-9.5-4.7-20.2-5-32.6-10.5-32.6-27.1v-.3c0-17.7,14-27.6,34.8-27.6s26.1,3.4,35.8,9.3l-10.5,19.9c-8.5-4.7-18.7-7.5-25.4-7.5s-4.7.9-4.7,2.5v.3c0,1.6,1.8,2.6,9.8,4.7,20.2,5,32.3,10.6,32.3,27.1v.3c0,17.6-13,27.7-34.6,27.7-15.5,0-29.5-4-40.9-11.7"/>
      <path class="cls-4" d="M72.5,256.3c0,2.6.5,4.5,1.4,5.8,1,1.3,2.4,2,4.3,2,3.6,0,6.5-2.7,8.8-8.2,2.3-5.4,3.4-10.1,3.4-13.8s-.5-4.9-1.6-6.2c-1.1-1.3-2.3-1.9-3.7-1.9-3.8,0-6.9,2.9-9.2,8.6-2.3,5.7-3.4,10.3-3.4,13.8M59.8,251.9c0-3.1.9-6.4,2.7-9.9,1.8-3.5,4.6-6.4,8.3-8.8,3.8-2.3,8.3-3.5,13.5-3.5s11.3,1.6,14.3,4.7c3,3.1,4.6,6.9,4.6,11.3s-2.3,11.4-7,15.8c-4.7,4.5-10.7,6.7-17.9,6.7s-9.7-1.4-13.2-4c-3.5-2.7-5.3-6.8-5.3-12.4"/>
      <path class="cls-4" d="M126.2,236l-4.3,19.6c-2.5,11.3-5.8,19.7-10,25.3-4.2,5.6-9.8,8.4-17,8.4s-5.9-.6-7.5-2c-1.6-1.3-2.4-2.9-2.4-4.8s.6-3.1,1.8-4.3c1.2-1.1,2.7-1.7,4.3-1.7,3.3,0,5.3,1.8,5.8,5.4.3,1.8,1.1,2.8,2.4,2.8s2.6-1.2,3.7-3.7,2.5-7.4,4.1-14.8l1.3-6.3c.4-1.5.7-2.7.9-3.6l4.4-20.3h-5.6l1.5-4.9h5.2c2.7-10,5.9-16.6,9.5-19.8s8-4.9,13-4.9,6.1.7,8.2,2,3.2,3.1,3.2,5.2-.5,2.7-1.5,3.8c-1,1.1-2.3,1.6-3.9,1.6-2.3,0-4.2-1.6-5.9-4.9-1.2-2.4-2.4-3.6-3.7-3.6s-2.6,1.9-3.3,5.8l-2.9,14.7h6.4l-1.5,4.9h-6Z"/>
      <path class="cls-1" d="M125.7,133.4l-9.4-25.2-9.4,25.2h18.7ZM99.6,67.6h34l43.2,104.3h-37.2l-5.4-13.9h-35.9l-5.3,13.9h-36.6l43.2-104.3Z"/>
      <rect class="cls-1" x="181.2" y="63.9" width="33.2" height="108"/>
      <rect class="cls-1" x="229.4" y="63.9" width="33.2" height="108"/>
      <path class="cls-1" d="M161.3,243.5v-57.1h34.9v56.7c0,12.9,6.6,18.3,15.8,18.3s15.8-5,15.8-17.6v-57.4h34.9v56.4c0,35.4-20.4,49.3-51,49.3s-50.4-14.2-50.4-48.5"/>
      <path class="cls-1" d="M266.8,280.2l11.3-19.1c9.7,6.1,20.5,9,29.6,9s4.8-.7,4.8-2.7v-.3c0-1.6-1.5-2.7-9.5-4.7-20.2-5-32.7-10.5-32.7-27.2v-.3c0-17.8,14.1-27.7,34.9-27.7s26.2,3.4,35.9,9.3l-10.5,20c-8.5-4.7-18.8-7.5-25.5-7.5s-4.7.9-4.7,2.5v.3c0,1.6,1.8,2.7,9.8,4.7,20.2,5,32.4,10.6,32.4,27.2v.3c0,17.6-13,27.8-34.7,27.8-15.5,0-29.6-4-41-11.7"/>
    </g>
  </g>
</svg>