<?xml version="1.0" encoding="UTF-8"?>
<svg id="Layer_1" xmlns="http://www.w3.org/2000/svg" version="1.1" viewBox="0 0 132 45">
  <!-- Generator: Adobe Illustrator 29.0.0, SVG Export Plug-In . SVG Version: 2.1.0 Build 186)  -->
  <defs>
    <style>
      .st0 {
        fill: #fff;
      }

      .st1 {
        fill: #5eaee0;
      }
    </style>
  </defs>
  <path class="st1" d="M57.6,19.9c0-.8.3-1.7.7-2.6.5-.9,1.2-1.7,2.2-2.3,1-.6,2.2-.9,3.6-.9s3,.4,3.8,1.3c.8.8,1.2,1.8,1.2,3s-.6,3-1.9,4.2c-1.3,1.2-2.8,1.8-4.8,1.8s-2.6-.4-3.5-1.1c-1-.8-1.4-1.9-1.4-3.4ZM61,21.1c0,.7.1,1.2.4,1.6.3.3.6.5,1.2.5.9,0,1.7-.7,2.3-2.2.6-1.5.9-2.7.9-3.7s-.1-1.3-.4-1.7c-.3-.3-.6-.5-1-.5-1,0-1.8.8-2.5,2.3-.6,1.5-.9,2.7-.9,3.6Z"/>
  <path class="st1" d="M75.5,15.7l-1.2,5.2c-.7,3-1.6,5.3-2.7,6.7-1.1,1.5-2.6,2.2-4.5,2.2s-1.6-.2-2-.5c-.4-.3-.6-.8-.6-1.3s.2-.8.5-1.1c.3-.3.7-.4,1.1-.4.9,0,1.4.5,1.6,1.5,0,.5.3.7.6.7s.7-.3,1-1c.3-.6.7-2,1.1-3.9l.4-1.7c.1-.4.2-.7.2-1l1.2-5.4h-1.5l.4-1.3h1.4c.7-2.7,1.6-4.4,2.5-5.3,1-.9,2.1-1.3,3.5-1.3s1.6.2,2.2.5c.6.3.9.8.9,1.4s-.1.7-.4,1c-.3.3-.6.4-1.1.4s-1.1-.4-1.6-1.3c-.3-.6-.6-1-1-1s-.7.5-.9,1.5l-.8,3.9h1.7l-.4,1.3h-1.7Z"/>
  <path class="st0" d="M11.9,2.3h9.1l11.6,27.8h-10l-1.4-3.7h-9.6l-1.4,3.7H.3L11.9,2.3ZM18.9,19.8l-2.5-6.7-2.5,6.7h5Z"/>
  <path class="st0" d="M42.7,1.3h-8.9v28.8h8.9V1.3Z"/>
  <path class="st0" d="M55.6,1.3h-8.9v28.8h8.9V1.3Z"/>
  <path class="st0" d="M83,17.7V2.5h9.3v15.1c0,3.4,1.8,4.9,4.2,4.9s4.2-1.3,4.2-4.7V2.5h9.3v15c0,9.4-5.5,13.1-13.7,13.1s-13.5-3.8-13.5-12.9Z"/>
  <path class="st0" d="M111.3,27.5l3-5.1c2.6,1.6,5.5,2.4,7.9,2.4s1.3-.2,1.3-.7h0c0-.5-.4-.8-2.5-1.3-5.4-1.3-8.8-2.8-8.8-7.3h0c0-4.8,3.8-7.4,9.3-7.4s7,.9,9.6,2.5l-2.8,5.3c-2.3-1.3-5-2-6.8-2s-1.3.2-1.3.7h0c0,.5.5.8,2.6,1.3,5.4,1.3,8.7,2.8,8.7,7.3h0c0,4.8-3.5,7.5-9.3,7.5-4.1,0-7.9-1.1-11-3.1Z"/>
  <path class="st0" d="M.3,35.7h3.7c1.2,0,2,.3,2.6.9.4.4.7,1.1.7,1.8h0c0,1.2-.6,2-1.6,2.4l1.9,2.7h-2.5l-1.6-2.4h-.9v2.4H.3v-7.9ZM3.9,39.5c.8,0,1.2-.4,1.2-.9h0c0-.6-.4-1-1.2-1h-1.4v1.9h1.4Z"/>
  <path class="st0" d="M8.9,35.7h6.3v1.8h-4.2v1.2h3.8v1.7h-3.8v1.3h4.2v1.8h-6.4v-7.9Z"/>
  <path class="st0" d="M16.5,42.4l1.2-1.5c.8.6,1.6,1,2.5,1s.9-.2.9-.5h0c0-.4-.3-.5-1.3-.8-1.7-.4-3-.9-3-2.5h0c0-1.5,1.1-2.5,3-2.5s2.4.4,3.2,1l-1.1,1.5c-.7-.5-1.5-.8-2.2-.8s-.8.2-.8.5h0c0,.4.3.5,1.4.8,1.8.4,2.9,1,2.9,2.5h0c0,1.6-1.3,2.6-3.2,2.6s-2.7-.4-3.7-1.3Z"/>
  <path class="st0" d="M24.9,35.7h6.3v1.8h-4.2v1.2h3.8v1.7h-3.8v1.3h4.2v1.8h-6.4v-7.9Z"/>
  <path class="st0" d="M35.6,35.6h2.1l3.3,7.9h-2.3l-.6-1.4h-3l-.6,1.4h-2.3l3.3-7.9ZM37.5,40.4l-.9-2.2-.9,2.2h1.8Z"/>
  <path class="st0" d="M42.1,35.7h3.7c1.2,0,2,.3,2.6.9.4.4.7,1.1.7,1.8h0c0,1.2-.6,2-1.6,2.4l1.9,2.7h-2.5l-1.6-2.4h-.9v2.4h-2.2v-7.9ZM45.7,39.5c.8,0,1.2-.4,1.2-.9h0c0-.6-.4-1-1.2-1h-1.4v1.9h1.4Z"/>
  <path class="st0" d="M50.2,39.6c0-2.3,1.8-4.1,4.1-4.1s2.6.7,3.3,1.7l-1.6,1.3c-.4-.6-1-.9-1.7-.9-1.1,0-1.9.9-1.9,2.1h0c0,1.2.8,2.1,1.9,2.1s1.3-.4,1.8-1l1.6,1.2c-.8,1-1.7,1.8-3.5,1.8-2.2,0-4-1.7-4-4.1Z"/>
  <path class="st0" d="M59,35.7h2.2v2.9h2.8v-2.9h2.2v7.9h-2.2v-3h-2.8v3h-2.2v-7.9Z"/>
  <path class="st0" d="M71.6,35.7h3.4c2,0,3.3,1,3.3,2.8h0c0,1.9-1.4,2.9-3.4,2.9h-1.1v2.2h-2.2v-7.9ZM74.8,39.6c.8,0,1.3-.4,1.3-1h0c0-.7-.5-1.1-1.3-1.1h-1v2.1h1Z"/>
  <path class="st0" d="M79.5,35.7h3.7c1.2,0,2,.3,2.6.9.4.4.7,1.1.7,1.8h0c0,1.2-.6,2-1.6,2.4l1.9,2.7h-2.5l-1.6-2.4h-.9v2.4h-2.2v-7.9ZM83.1,39.5c.8,0,1.2-.4,1.2-.9h0c0-.6-.4-1-1.2-1h-1.4v1.9h1.4Z"/>
  <path class="st0" d="M87.2,39.6c0-2.3,1.8-4.1,4.2-4.1s4.2,1.8,4.2,4.1h0c0,2.3-1.8,4.1-4.2,4.1-2.4,0-4.2-1.8-4.2-4.1ZM93.5,39.6c0-1.1-.8-2.2-2-2.2s-2,1-2,2.1h0c0,1.2.8,2.2,2,2.2,1.2,0,2-1,2-2.1Z"/>
  <path class="st0" d="M96.6,39.6c0-2.3,1.8-4.1,4.2-4.1s2.3.4,3.2,1.1l-1.3,1.5c-.6-.5-1.1-.8-1.9-.8-1.1,0-2,1-2,2.2h0c0,1.3.9,2.2,2.1,2.2s.9-.1,1.3-.3v-1h-1.5v-1.6h3.6v3.6c-.8.7-2,1.2-3.4,1.2-2.4,0-4.2-1.7-4.2-4.1Z"/>
  <path class="st0" d="M106,35.7h3.7c1.2,0,2,.3,2.6.9.4.4.7,1.1.7,1.8h0c0,1.2-.6,2-1.6,2.4l1.9,2.7h-2.5l-1.6-2.4h-.9v2.4h-2.2v-7.9ZM109.6,39.5c.8,0,1.2-.4,1.2-.9h0c0-.6-.4-1-1.2-1h-1.4v1.9h1.4Z"/>
  <path class="st0" d="M117.1,35.6h2.1l3.3,7.9h-2.3l-.6-1.4h-3l-.6,1.4h-2.3l3.3-7.9ZM119,40.4l-.9-2.2-.9,2.2h1.8Z"/>
  <path class="st0" d="M123.3,35.7h2.3l1.9,3.1,1.9-3.1h2.3v7.9h-2.2v-4.5l-2,3.1h0l-2-3.1v4.5h-2.1v-7.9h0Z"/>
</svg>