<?xml version="1.0" encoding="UTF-8"?>
<svg xmlns="http://www.w3.org/2000/svg" version="1.1" viewBox="0 0 220 29">
  <defs>
    <style>
      .cls-1, .cls-2 {
        fill: #fff;
      }

      .cls-1, .cls-3 {
        fill-rule: evenodd;
      }

      .cls-4 {
        font-family: Avenir-Light, Avenir;
        font-size: 20.5px;
        font-weight: 300;
      }

      .cls-4, .cls-5, .cls-3 {
        fill: #262262;
      }

      .cls-2 {
        font-family: Avenir-Heavy, Avenir;
        font-size: 8.7px;
        font-weight: 800;
      }
    </style>
  </defs>
  <!-- Generator: Adobe Illustrator 28.7.1, SVG Export Plug-In . SVG Version: 1.2.0 Build 142)  -->
  <g>
    <g id="Layer_1">
      <rect class="cls-5" x="177.1" y="8.1" width="26.7" height="12.3"/>
      <g>
        <path class="cls-3" d="M0,0h81.3v29H0V0Z"/>
        <path class="cls-1" d="M16.4,16.1l-1.3-3.7-1.3,3.7h2.6ZM53.7,6.6v8.3c0,1.9.9,2.7,2.1,2.7s2.1-.7,2.1-2.6V6.6h4.7v8.3c0,5.2-2.8,7.2-6.9,7.2s-6.8-2.1-6.8-7.1V6.6h4.7ZM68.7,9.6c1.8,0,3.6.5,4.9,1.4l-1.4,3c-1.2-.7-2.5-1.1-3.5-1.1s-.6.1-.6.4h0c0,.3.2.4,1.3.7,2.7.7,4.4,1.6,4.4,4h0c0,2.6-1.8,4.2-4.7,4.2s-4-.6-5.6-1.7l1.5-2.8c1.3.9,2.8,1.3,4,1.3s.7-.1.7-.4h0c0-.3-.2-.4-1.3-.7-2.7-.7-4.4-1.6-4.4-4h0c0-2.7,1.9-4.1,4.7-4.1h0ZM28.5,5.9v16h-4.5V5.9h4.5ZM35,5.9v16h-4.5V5.9h4.5ZM17.5,6.4l5.9,15.3h-5.1l-.7-2h-4.9l-.7,2h-5l5.9-15.3s4.6,0,4.6,0ZM46.6,9.6c.5,0,.8,0,1.1.3.3.2.4.5.4.8s0,.4-.2.6c-.1.2-.3.2-.5.2-.3,0-.6-.2-.8-.7-.2-.4-.3-.5-.5-.5s-.3.3-.5.9l-.4,2.2h.9l-.2.7h-.8l-.6,2.9c-.3,1.7-.8,2.9-1.4,3.7-.6.8-1.3,1.2-2.3,1.2s-.8,0-1-.3c-.2-.2-.3-.4-.3-.7s0-.5.2-.6c.2-.2.4-.3.6-.3.5,0,.7.3.8.8,0,.3.1.4.3.4s.3-.2.5-.5c.2-.4.3-1.1.5-2.2l.2-.9c0-.2,0-.4.1-.5l.6-3h-.8l.2-.7h.7c.4-1.5.8-2.4,1.3-2.9.5-.5,1.1-.7,1.8-.7h0ZM39.4,13c.9,0,1.5.2,1.9.7.4.5.6,1,.6,1.6s-.3,1.7-1,2.3c-.6.6-1.4,1-2.4,1s-1.3-.2-1.8-.6c-.5-.4-.7-1-.7-1.8s.1-.9.4-1.4.6-.9,1.1-1.3,1.1-.5,1.8-.5ZM39.5,13.6c-.5,0-.9.4-1.2,1.2-.3.8-.5,1.5-.5,2s0,.7.2.8c.1.2.3.3.6.3.5,0,.9-.4,1.2-1.2.3-.8.5-1.5.5-2s0-.7-.2-.9c-.1-.2-.3-.3-.5-.3h0Z"/>
      </g>
      <text class="cls-4" transform="translate(88.2 22.1)"><tspan x="0" y="0">All by All</tspan></text>
      <text class="cls-2" transform="translate(179.5 16.9)"><tspan x="0" y="0">alpha</tspan></text>
    </g>
  </g>
</svg>