<?xml version="1.0" encoding="UTF-8"?>
<svg id="_x28_background_x29_" xmlns="http://www.w3.org/2000/svg" version="1.1" viewBox="0 0 260 41">
  <!-- Generator: Adobe Illustrator 29.0.0, SVG Export Plug-In . SVG Version: 2.1.0 Build 186)  -->
  <defs>
    <style>
      .st0 {
        fill: #fff;
      }
    </style>
  </defs>
  <path class="st0" d="M76,22.9h0l-5.2-8.3h-2.1v11.3h1.9v-8.3h0l5.1,8.3h2.1v-11.3h-1.9v8.3Z"/>
  <path class="st0" d="M86.5,24v-4.2c0-1.7-1.7-2.4-3.3-2.4s-3.6.6-3.7,2.7h1.8c0-.9.8-1.3,1.8-1.3s1.7.2,1.7,1.1-1.2.9-2.4,1.1c-1.5.2-3.1.5-3.1,2.5s1.3,2.4,2.8,2.4,2.1-.3,2.8-1c.1.7.7,1,1.4,1s.9-.1,1.1-.2v-1.3c-.2,0-.3,0-.4,0-.3,0-.4-.2-.4-.6h0ZM84.7,23.1c0,1.1-1.2,1.5-2,1.5s-1.7-.2-1.7-1,.7-1.2,1.5-1.4c.8-.1,1.7-.1,2.2-.5v1.3h0Z"/>
  <path class="st0" d="M90.4,15.2h-1.8v2.4h-1.4v1.3h1.4v4.8c0,1.4.4,2.1,2.3,2.1s.8,0,1.2,0v-1.4c-.3,0-.5,0-.8,0-.8,0-.9-.4-.9-1.1v-4.4h1.6v-1.3h-1.6v-2.4h0Z"/>
  <path class="st0" d="M94.9,17.7h-1.8v8.2h1.8v-8.2Z"/>
  <path class="st0" d="M94.9,14.6h-1.8v1.7h1.8v-1.7Z"/>
  <path class="st0" d="M100.3,17.5c-2.6,0-4.1,1.8-4.1,4.3s1.5,4.3,4.1,4.3,4.1-1.8,4.1-4.3-1.5-4.3-4.1-4.3h0ZM100.3,24.6c-1.6,0-2.3-1.5-2.3-2.9s.7-2.9,2.3-2.9,2.3,1.5,2.3,2.9-.7,2.9-2.3,2.9Z"/>
  <path class="st0" d="M109.9,17.5c-1.1,0-2,.6-2.5,1.5h0v-1.2h-1.7v8.2h1.8v-4.8c0-1.2.8-2.1,2-2.1s1.6.6,1.6,1.8v5.1h1.8v-5.6c0-1.8-1.1-2.8-2.9-2.8h0Z"/>
  <path class="st0" d="M121.2,24v-4.2c0-1.7-1.7-2.4-3.3-2.4s-3.6.6-3.7,2.7h1.8c0-.9.8-1.3,1.8-1.3s1.7.2,1.7,1.1-1.2.9-2.4,1.1c-1.5.2-3.1.5-3.1,2.5s1.3,2.4,2.8,2.4,2.1-.3,2.8-1c.1.7.7,1,1.4,1s.9-.1,1.1-.2v-1.3c-.2,0-.3,0-.4,0-.3,0-.4-.2-.4-.6h0ZM119.4,23.1c0,1.1-1.2,1.5-2,1.5s-1.7-.2-1.7-1,.7-1.2,1.5-1.4c.8-.1,1.7-.1,2.2-.5v1.3Z"/>
  <path class="st0" d="M124.7,14.6h-1.8v11.3h1.8v-11.3Z"/>
  <path class="st0" d="M132.6,14.6h-2v11.3h2v-11.3Z"/>
  <path class="st0" d="M138.7,17.5c-1.1,0-2,.6-2.5,1.5h0v-1.2h-1.7v8.2h1.8v-4.8c0-1.2.8-2.1,2-2.1s1.6.6,1.6,1.8v5.1h1.8v-5.6c0-1.8-1.1-2.8-2.9-2.8h0Z"/>
  <path class="st0" d="M147.4,21c-1.3-.3-2.6-.4-2.6-1.3s1-.8,1.5-.8c.8,0,1.5.2,1.7,1.1h1.9c-.2-1.8-1.7-2.5-3.4-2.5s-3.4.6-3.4,2.3,1.3,2.1,2.6,2.4c1.3.3,2.6.4,2.7,1.4,0,.9-1.1,1.1-1.8,1.1-1,0-1.8-.4-1.8-1.4h-1.8c0,1.9,1.6,2.8,3.6,2.8s3.7-.7,3.7-2.6-1.3-2.1-2.6-2.4h0Z"/>
  <path class="st0" d="M153.4,15.2h-1.8v2.4h-1.4v1.3h1.4v4.8c0,1.4.4,2.1,2.3,2.1s.8,0,1.2,0v-1.4c-.2,0-.5,0-.8,0-.8,0-.9-.4-.9-1.1v-4.4h1.6v-1.3h-1.6v-2.4h0Z"/>
  <path class="st0" d="M157.9,17.7h-1.8v8.2h1.8v-8.2Z"/>
  <path class="st0" d="M157.9,14.6h-1.8v1.7h1.8v-1.7Z"/>
  <path class="st0" d="M161.9,15.2h-1.8v2.4h-1.4v1.3h1.4v4.8c0,1.4.4,2.1,2.3,2.1s.8,0,1.2,0v-1.4c-.2,0-.5,0-.8,0-.8,0-.9-.4-.9-1.1v-4.4h1.6v-1.3h-1.6v-2.4h0Z"/>
  <path class="st0" d="M169.8,22.4c0,1.3-.5,2.2-2,2.2s-1.6-.5-1.6-2v-5h-1.8v5.2c0,2.1.9,3.2,3,3.2s1.9-.5,2.3-1.4h0v1.1h1.8v-8.2h-1.8v4.7h0Z"/>
  <path class="st0" d="M175.6,15.2h-1.8v2.4h-1.4v1.3h1.4v4.8c0,1.4.4,2.1,2.3,2.1s.8,0,1.2,0v-1.4c-.3,0-.5,0-.8,0-.8,0-.9-.4-.9-1.1v-4.4h1.6v-1.3h-1.6v-2.4h0Z"/>
  <path class="st0" d="M181.7,17.5c-2.4,0-3.9,2-3.9,4.3s1.4,4.3,4,4.3,3.3-1,3.7-2.8h-1.7c-.3.9-.9,1.4-2,1.4-1.5,0-2.2-1.1-2.2-2.4h6c.3-2.4-1.3-4.8-3.9-4.8h0ZM179.6,21c0-1.2.9-2.2,2.1-2.2s2,1,2.1,2.2h-4.2Z"/>
  <path class="st0" d="M190.8,21c-1.3-.3-2.7-.4-2.7-1.3s1-.8,1.5-.8c.8,0,1.5.2,1.7,1.1h1.9c-.2-1.8-1.7-2.5-3.4-2.5s-3.4.6-3.4,2.3,1.3,2.1,2.6,2.4c1.3.3,2.6.4,2.7,1.4,0,.9-1.1,1.1-1.8,1.1-1,0-1.8-.4-1.8-1.4h-1.8c0,1.9,1.6,2.8,3.6,2.8s3.7-.7,3.7-2.6-1.3-2.1-2.6-2.4h0Z"/>
  <path class="st0" d="M202.3,17.5c-2.6,0-4.1,1.8-4.1,4.3s1.5,4.3,4.1,4.3,4.1-1.8,4.1-4.3-1.5-4.3-4.1-4.3h0ZM202.3,24.6c-1.6,0-2.3-1.5-2.3-2.9s.7-2.9,2.3-2.9,2.3,1.5,2.3,2.9-.7,2.9-2.3,2.9Z"/>
  <path class="st0" d="M208.2,17v.7h-1.3v1.3h1.3v6.8h1.8v-6.8h1.5v-1.3h-1.5v-.8c0-.7.4-.9.9-.9s.6,0,.8,0v-1.4c-.3,0-.7-.1-1.3-.1-1.2,0-2.3.4-2.3,2.4h0Z"/>
  <path class="st0" d="M223.7,19.1h-5.1v-4.5h-2v11.3h2v-5.1h5.1v5.1h2v-11.3h-2v4.5Z"/>
  <path class="st0" d="M231,17.5c-2.4,0-3.9,2-3.9,4.3s1.4,4.3,4,4.3,3.3-1,3.7-2.8h-1.7c-.3.9-.9,1.4-2,1.4-1.5,0-2.2-1.1-2.2-2.4h6c.3-2.4-1.3-4.8-3.9-4.8h0ZM228.9,21c0-1.2.9-2.2,2.1-2.2s2,1,2.1,2.2h-4.2Z"/>
  <path class="st0" d="M242.8,24v-4.2c0-1.7-1.7-2.4-3.3-2.4s-3.6.6-3.7,2.7h1.8c0-.9.8-1.3,1.8-1.3s1.7.2,1.7,1.1-1.2.9-2.4,1.1c-1.5.2-3.1.5-3.1,2.5s1.3,2.4,2.8,2.4,2.1-.3,2.8-1c.1.7.7,1,1.4,1s.9-.1,1.1-.2v-1.3c-.2,0-.3,0-.4,0-.3,0-.4-.2-.4-.6h0ZM241,23.1c0,1.1-1.2,1.5-2,1.5s-1.7-.2-1.7-1,.7-1.2,1.5-1.4c.8-.1,1.7-.1,2.2-.5v1.3Z"/>
  <path class="st0" d="M246.2,14.6h-1.8v11.3h1.8v-11.3Z"/>
  <path class="st0" d="M250.2,15.2h-1.8v2.4h-1.4v1.3h1.4v4.8c0,1.4.4,2.1,2.3,2.1s.8,0,1.2,0v-1.4c-.2,0-.5,0-.8,0-.8,0-.9-.4-.9-1.1v-4.4h1.6v-1.3h-1.6v-2.4h0Z"/>
  <path class="st0" d="M257.1,17.5c-1.1,0-2,.6-2.4,1.3h0v-4.2h-1.8v11.3h1.8v-4.8c0-1.2.8-2.1,2-2.1s1.6.6,1.6,1.8v5.1h1.8v-5.6c0-1.8-1.1-2.8-2.9-2.8h0Z"/>
  <path class="st0" d="M44.1,11.6v17.9h-3.1v-8.1h-8.1v8.1h-3.1V11.6h3.1v7.1h8.1v-7.1h3.1ZM26.7,29.5h-3.1V11.6h3.1v17.9ZM20.5,29.5h-3.3l-8.1-13.2h0v13.2h-3V11.6h3.3l8.1,13.2h0v-13.2h3v17.9h0ZM55,20.5L44,.4H3.6C1.6.4,0,2.1,0,4.1v32.7c0,2,1.6,3.7,3.6,3.7h40.4l11-20.1h0Z"/>
  <path class="st0" d="M46.8,40.6l11-20.1L46.8.4h2.7c1.5,0,3.3,1.1,4,2.4l9.6,17.6-9.7,17.7c-.7,1.3-2.6,2.4-4,2.4h-2.7Z"/>
</svg>