<?xml version="1.0" encoding="UTF-8"?>
<svg id="Layer_1" xmlns="http://www.w3.org/2000/svg" version="1.1" viewBox="0 0 130 40">
  <!-- Generator: Adobe Illustrator 29.0.0, SVG Export Plug-In . SVG Version: 2.1.0 Build 186)  -->
  <defs>
    <style>
      .st0 {
        fill: #262262;
      }

      .st1 {
        fill: #ffdd7f;
      }
    </style>
  </defs>
  <rect class="st1" width="130" height="40" rx="4" ry="4"/>
  <path class="st0" d="M31.8,25v-11.2h5.1c1.4,0,2.5.4,3.3,1.1s1,1.5,1,2.6h0c0,1.8-1,3-2.4,3.5l2.7,4h-2.9l-2.4-3.6h-1.9v3.6h-2.5ZM34.3,19.2h2.5c1.2,0,1.9-.6,1.9-1.6h0c0-1.1-.7-1.6-1.9-1.6h-2.4v3.2ZM47.2,25.2c-2.6,0-4.5-1.8-4.5-4.4h0c0-2.5,1.7-4.5,4.2-4.5s4.2,2.2,4.2,4.7,0,.4,0,.6h-6c.2,1.1,1,1.7,2.1,1.7s1.4-.3,2.1-.9l1.4,1.2c-.8,1-2,1.6-3.5,1.6ZM45.1,20h3.7c-.1-1.1-.8-1.8-1.8-1.8s-1.7.7-1.9,1.8ZM57,27.6c-1.4,0-2.7-.3-3.8-.9l.8-1.8c.9.5,1.8.8,2.9.8,1.7,0,2.4-.8,2.4-2.3v-.4c-.7.9-1.5,1.4-2.8,1.4-2,0-3.8-1.5-3.8-4h0c0-2.6,1.8-4,3.8-4s2.1.6,2.8,1.3v-1.1h2.4v6.6c0,1.5-.4,2.7-1.1,3.4-.8.8-2,1.2-3.7,1.2ZM57.3,22.3c1.2,0,2.1-.8,2.1-2h0c0-1.2-.9-2-2.1-2s-2.1.8-2.1,2h0c0,1.2.9,2,2.1,2ZM64.2,15.5v-2.2h2.6v2.2h-2.6ZM64.3,25v-8.6h2.4v8.6h-2.4ZM72.2,25.2c-1.2,0-2.5-.4-3.7-1.3l1-1.6c.9.7,1.9,1,2.7,1s1-.3,1-.6h0c0-.6-.8-.7-1.8-1-1.2-.4-2.6-.9-2.6-2.6h0c0-1.8,1.4-2.8,3.1-2.8s2.3.4,3.2,1l-.9,1.7c-.8-.5-1.7-.8-2.3-.8s-.9.3-.9.6h0c0,.5.8.7,1.7,1.1,1.2.4,2.6,1,2.6,2.5h0c0,1.9-1.4,2.8-3.3,2.8ZM80.2,25.1c-1.5,0-2.5-.6-2.5-2.6v-4.1h-1v-2.1h1v-2.2h2.4v2.2h2v2.1h-2v3.7c0,.6.2.8.8.8s.8-.1,1.2-.3v2c-.5.3-1.1.5-1.9.5ZM88,25.2c-2.6,0-4.5-1.8-4.5-4.4h0c0-2.5,1.7-4.5,4.2-4.5s4.2,2.2,4.2,4.7,0,.4,0,.6h-6c.2,1.1,1,1.7,2.1,1.7s1.4-.3,2.1-.9l1.4,1.2c-.8,1-2,1.6-3.5,1.6ZM85.9,20h3.7c-.1-1.1-.8-1.8-1.8-1.8s-1.7.7-1.9,1.8ZM93.9,25v-8.6h2.4v1.7c.5-1.2,1.3-2,2.7-1.9v2.5h-.1c-1.6,0-2.6,1-2.6,3v3.2h-2.4Z"/>
</svg>